<svg width="82" height="109" viewBox="0 0 82 109" fill="none" xmlns="http://www.w3.org/2000/svg">
<path d="M62.3376 18.8179C61.9724 18.4174 61.3422 18.3879 60.9358 18.759L54.5807 24.5781C54.1802 24.9492 54.1508 25.5735 54.5218 25.9799C54.7103 26.186 54.9753 26.3038 55.2522 26.3038C55.4995 26.3038 55.7351 26.2096 55.9236 26.0447L62.2787 20.2256C62.6792 19.8545 62.7086 19.2302 62.3376 18.8297V18.8179Z" fill="white"/>
<path d="M62.2728 39.2966L55.9177 33.4775C55.5172 33.1065 54.887 33.1359 54.5159 33.5423C54.1508 33.9428 54.1743 34.573 54.5807 34.9382L60.9358 40.7573C61.1184 40.9222 61.354 41.0164 61.6073 41.0164C61.8841 41.0164 62.1491 40.8987 62.3376 40.6925C62.7028 40.292 62.6792 39.6618 62.2728 39.2966Z" fill="white"/>
<path d="M67.7739 28.972H58.6448C58.097 28.972 57.6553 29.4138 57.6553 29.9615C57.6553 30.5093 58.097 30.951 58.6448 30.951H67.7739C68.3217 30.951 68.7634 30.5093 68.7634 29.9615C68.7634 29.4138 68.3217 28.972 67.7739 28.972Z" fill="white"/>
<path d="M40.5457 0C20.4025 0 4.01123 16.3913 4.01123 36.5344C4.01123 52.0776 13.8708 65.9481 28.5422 71.0487C28.7896 71.137 29.0605 71.1193 29.2961 71.0074C29.5376 70.8896 29.7143 70.6894 29.8027 70.442C29.891 70.1946 29.8733 69.9237 29.7614 69.6822C29.6495 69.4466 29.4434 69.264 29.196 69.1757C15.3196 64.352 5.99609 51.2295 5.99609 36.5285C5.99609 17.475 21.498 1.97308 40.5515 1.97308C59.605 1.97308 75.107 17.475 75.107 36.5285C75.107 51.306 65.7187 64.4462 51.7481 69.2287C51.2298 69.4054 50.9588 69.9708 51.1296 70.4891C51.2651 70.8896 51.642 71.1606 52.0661 71.1606C52.178 71.1606 52.284 71.1429 52.3842 71.1076C67.1558 66.0482 77.0801 52.1542 77.0801 36.5344C77.0801 16.3913 60.6888 0 40.5457 0Z" fill="white"/>
<path d="M63.6451 106.871H17.4455C16.8978 106.871 16.4561 107.313 16.4561 107.86C16.4561 108.408 16.8978 108.85 17.4455 108.85H63.6451C64.1929 108.85 64.6346 108.408 64.6346 107.86C64.6346 107.313 64.1929 106.871 63.6451 106.871Z" fill="white"/>
<path d="M68.0154 102.03H34.3139C33.7662 102.03 33.3245 102.471 33.3245 103.019C33.3245 103.567 33.7662 104.009 34.3139 104.009H68.0154C68.5631 104.009 69.0049 103.567 69.0049 103.019C69.0049 102.471 68.5631 102.03 68.0154 102.03Z" fill="white"/>
<path d="M25.8916 102.029H0.989487C0.441735 102.029 0 102.471 0 103.019C0 103.566 0.441735 104.008 0.989487 104.008H25.8916C26.4393 104.008 26.8811 103.566 26.8811 103.019C26.8811 102.471 26.4393 102.029 25.8916 102.029Z" fill="white"/>
<path d="M80.0895 102.029H73.2573C72.7096 102.029 72.2678 102.471 72.2678 103.019C72.2678 103.567 72.7096 104.008 73.2573 104.008H80.0895C80.6372 104.008 81.079 103.567 81.079 103.019C81.079 102.471 80.6372 102.029 80.0895 102.029Z" fill="white"/>
<path d="M30.474 47.3187C29.9204 47.2775 29.4551 47.6957 29.4198 48.2375L25.8446 98.1006C25.8034 98.6424 26.2157 99.1195 26.7576 99.1549H26.8341C27.3524 99.1549 27.7824 98.7543 27.8177 98.2419L31.3928 48.3789C31.4341 47.837 31.0218 47.36 30.474 47.3187Z" fill="white"/>
<path d="M44.0674 55.6997C44.0497 55.4347 43.9261 55.1932 43.7258 55.0224C43.5255 54.8457 43.2605 54.7632 43.0072 54.7809C42.7422 54.7986 42.5007 54.9223 42.3299 55.1225C42.1591 55.3228 42.0708 55.576 42.0943 55.8411L45.1806 98.2417C45.2159 98.76 45.6518 99.1605 46.1642 99.1605H46.2349C46.4999 99.137 46.7414 99.0192 46.9122 98.8189C47.083 98.6187 47.1713 98.3654 47.1478 98.1004L44.0615 55.6997H44.0674Z" fill="white"/>
<path d="M52.5018 63.6158C52.1484 58.6625 47.9843 54.7811 43.0192 54.7811H37.2648L39.2556 49.2977H50.7054C51.2531 49.2977 51.6948 48.856 51.6948 48.3082C51.6948 47.7605 51.2531 47.3187 50.7054 47.3187H37.8715L34.4377 56.7601H43.0133C46.9477 56.7601 50.246 59.8345 50.5228 63.7689L53.2674 98.2537C53.3087 98.7661 53.7445 99.1666 54.251 99.1666H54.3335C54.8753 99.1195 55.2817 98.6424 55.2405 98.1006L52.4959 63.6217L52.5018 63.6158Z" fill="white"/>
<path d="M44.7272 17.3157C43.667 17.0801 42.8424 16.7032 42.2652 16.1907C41.7999 15.7785 41.5349 15.1541 41.5349 14.4827V11.7322C41.5349 11.1844 41.0932 10.7427 40.5454 10.7427C39.9976 10.7427 39.5559 11.1844 39.5559 11.7322V14.4827C39.5559 15.7196 40.0624 16.8857 40.9518 17.675C41.7823 18.4112 42.9131 18.9472 44.3031 19.2534C47.0419 19.8601 46.8769 21.9922 46.8475 22.2337C46.7768 22.7755 47.1596 23.2703 47.7074 23.341C47.7486 23.341 47.7899 23.3468 47.8311 23.3468C48.3258 23.3468 48.7499 22.9758 48.8147 22.481C48.9973 21.0498 48.3788 18.1285 44.733 17.3157H44.7272Z" fill="white"/>
<path d="M40.5453 10.7369C39.9976 10.7369 39.5558 11.1787 39.5558 11.7264V14.477C39.5558 15.1543 39.2908 15.7727 38.8255 16.185C38.2483 16.6974 37.4178 17.0744 36.3636 17.31C32.7178 18.1169 32.0994 21.0382 32.2819 22.4753C32.3467 22.9642 32.7649 23.3352 33.2596 23.3352C33.3009 23.3352 33.3362 23.3352 33.3774 23.3293C33.9134 23.2645 34.3021 22.7698 34.2432 22.2338C34.2138 21.9923 34.0489 19.8543 36.7876 19.2477C38.1776 18.9414 39.3026 18.4055 40.1389 17.6692C41.0224 16.88 41.5348 15.7197 41.5348 14.4829V11.7323C41.5348 11.1846 41.0931 10.7428 40.5453 10.7428V10.7369Z" fill="white"/>
<path d="M51.0351 21.757H30.0557C29.5079 21.757 29.0662 22.1987 29.0662 22.7464C29.0662 23.2942 29.5079 23.7359 30.0557 23.7359H51.0351C51.5829 23.7359 52.0246 23.2942 52.0246 22.7464C52.0246 22.1987 51.5829 21.757 51.0351 21.757Z" fill="white"/>
<path d="M49.6627 28.0119L31.4574 27.8057C31.1982 27.7998 30.945 27.8823 30.7565 28.059C30.5621 28.2416 30.4502 28.5066 30.4443 28.7834C30.4443 29.3312 30.8743 29.7788 31.422 29.7847L49.6392 29.9908H49.6451C50.1869 29.9908 50.6287 29.5491 50.6346 29.0131C50.6346 28.4654 50.2046 28.0177 49.6569 28.0119H49.6627Z" fill="white"/>
<path d="M54.9814 39.4381H26.1037C25.556 39.4381 25.1143 39.8798 25.1143 40.4276C25.1143 40.9753 25.556 41.4171 26.1037 41.4171H54.9814C55.5292 41.4171 55.9709 40.9753 55.9709 40.4276C55.9709 39.8798 55.5292 39.4381 54.9814 39.4381Z" fill="white"/>
<path d="M51.96 43.1663H29.1311C28.5833 43.1663 28.1416 43.608 28.1416 44.1557C28.1416 44.7035 28.5833 45.1452 29.1311 45.1452H51.96C52.5077 45.1452 52.9494 44.7035 52.9494 44.1557C52.9494 43.608 52.5077 43.1663 51.96 43.1663Z" fill="white"/>
<path d="M49.651 33.8605H31.4338C30.8861 33.8605 30.4443 34.3022 30.4443 34.85C30.4443 35.3977 30.8861 35.8394 31.4338 35.8394H49.651C50.1987 35.8394 50.6405 35.3977 50.6405 34.85C50.6405 34.3022 50.1987 33.8605 49.651 33.8605Z" fill="white"/>
<path d="M30.4443 21.757V41.4171H50.6405V21.757H30.4443ZM32.4233 39.4381V23.7359H48.6615V39.4381H32.4233Z" fill="white"/>
<path d="M36.2754 33.8605C35.7276 33.8605 35.2859 34.3022 35.2859 34.85V40.4335C35.2859 40.9812 35.7276 41.423 36.2754 41.423C36.8231 41.423 37.2649 40.9812 37.2649 40.4335V34.85C37.2649 34.3022 36.8231 33.8605 36.2754 33.8605Z" fill="white"/>
<path d="M40.7163 33.8605C40.1685 33.8605 39.7268 34.3022 39.7268 34.85V40.4335C39.7268 40.9812 40.1685 41.423 40.7163 41.423C41.264 41.423 41.7058 40.9812 41.7058 40.4335V34.85C41.7058 34.3022 41.264 33.8605 40.7163 33.8605Z" fill="white"/>
<path d="M45.1572 33.8605C44.6095 33.8605 44.1677 34.3022 44.1677 34.85V40.4335C44.1677 40.9812 44.6095 41.423 45.1572 41.423C45.705 41.423 46.1467 40.9812 46.1467 40.4335V34.85C46.1467 34.3022 45.705 33.8605 45.1572 33.8605Z" fill="white"/>
<path d="M62.5792 18.6C62.3848 18.3821 62.1021 18.2525 61.8135 18.2407L58.8392 18.1052C58.5329 18.0994 58.2384 18.1936 58.0264 18.3938C57.8202 18.5882 57.7024 18.8591 57.6848 19.1536C57.673 19.4481 57.7731 19.7308 57.9734 19.9488C58.1736 20.1667 58.4445 20.2962 58.739 20.308L60.6061 20.3964L60.5178 22.1574C60.5001 22.4519 60.6002 22.7346 60.8005 22.9525C61.0007 23.1705 61.2717 23.3 61.5838 23.3177H61.625C62.214 23.3177 62.697 22.8583 62.7264 22.2693L62.8737 19.401C62.8855 19.1065 62.7853 18.8238 62.591 18.6059L62.5792 18.6Z" fill="white"/>
<path d="M26.1566 26.0153C25.9858 26.0153 25.815 25.9564 25.6795 25.8268L19.3244 20.0077C19.0358 19.7426 19.0181 19.295 19.2773 19.0064C19.5423 18.7178 19.99 18.7001 20.2786 18.9593L26.6337 24.7784C26.9223 25.0435 26.9399 25.4911 26.6808 25.7797C26.5394 25.9328 26.3509 26.0094 26.1566 26.0094V26.0153Z" fill="white"/>
<path d="M26.1567 26.2921C25.9093 26.2921 25.6737 26.1978 25.4911 26.0329L19.136 20.2138C18.7355 19.8427 18.7061 19.2184 19.0713 18.8179C19.4423 18.4174 20.0666 18.388 20.473 18.7531L26.8281 24.5723C27.2286 24.9433 27.2581 25.5676 26.8929 25.9681C26.7044 26.1743 26.4394 26.2921 26.1626 26.2921H26.1567ZM19.8016 19.0535C19.6838 19.0535 19.5719 19.1006 19.4835 19.1949C19.3245 19.3657 19.3363 19.6425 19.513 19.8015L25.8681 25.6206C26.0389 25.7738 26.3216 25.762 26.4747 25.5912C26.6338 25.4145 26.622 25.1436 26.4453 24.9845L20.0902 19.1654C20.0077 19.0889 19.9017 19.0535 19.8016 19.0535Z" fill="white"/>
<path d="M19.8016 40.7339C19.6073 40.7339 19.4188 40.6573 19.2774 40.5042C19.0124 40.2156 19.0359 39.768 19.3245 39.5029L25.6796 33.6838C25.9682 33.4188 26.4159 33.4423 26.6809 33.7309C26.946 34.0195 26.9224 34.4671 26.6338 34.7322L20.2787 40.5513C20.1432 40.675 19.9724 40.7398 19.8016 40.7398V40.7339Z" fill="white"/>
<path d="M19.8015 41.0167C19.5247 41.0167 19.2596 40.8989 19.0711 40.6928C18.7001 40.2922 18.7295 39.662 19.13 39.2969L25.4851 33.4777C25.8856 33.1126 26.5158 33.1361 26.8869 33.5366C27.2521 33.9372 27.2285 34.5674 26.828 34.9325L20.4729 40.7517C20.2903 40.9166 20.0547 41.0108 19.8074 41.0108L19.8015 41.0167ZM26.1566 33.784C26.0505 33.784 25.9504 33.8194 25.868 33.8959L19.5129 39.715C19.3362 39.8741 19.3244 40.145 19.4834 40.3217C19.6366 40.4925 19.9193 40.5043 20.0901 40.3511L26.4452 34.532C26.6219 34.373 26.6336 34.1021 26.4687 33.9254C26.3863 33.8311 26.2685 33.7899 26.1507 33.7899L26.1566 33.784Z" fill="white"/>
<path d="M22.7642 30.6741H13.635C13.2463 30.6741 12.9282 30.356 12.9282 29.9673C12.9282 29.5785 13.2463 29.2605 13.635 29.2605H22.7642C23.1529 29.2605 23.471 29.5785 23.471 29.9673C23.471 30.356 23.1529 30.6741 22.7642 30.6741Z" fill="white"/>
<path d="M22.7642 30.951H13.635C13.0872 30.951 12.6455 30.5093 12.6455 29.9615C12.6455 29.4138 13.0872 28.972 13.635 28.972H22.7642C23.3119 28.972 23.7537 29.4138 23.7537 29.9615C23.7537 30.5093 23.3119 30.951 22.7642 30.951ZM13.635 29.5316C13.3994 29.5316 13.205 29.7259 13.205 29.9615C13.205 30.1971 13.3994 30.3915 13.635 30.3915H22.7642C22.9998 30.3915 23.1941 30.1971 23.1941 29.9615C23.1941 29.7259 22.9998 29.5316 22.7642 29.5316H13.635Z" fill="white"/>
<path d="M70.9955 97.1818H41.682V84.3597C41.682 81.5385 39.385 79.2473 36.5696 79.2473C33.7543 79.2473 31.4573 81.5443 31.4573 84.3597V97.1818H10.0891C9.54134 97.1818 9.09961 97.6235 9.09961 98.1712C9.09961 98.719 9.54134 99.1607 10.0891 99.1607H70.9955C71.5433 99.1607 71.985 98.719 71.985 98.1712C71.985 97.6235 71.5433 97.1818 70.9955 97.1818ZM33.4363 84.3597C33.4363 82.634 34.8439 81.2263 36.5696 81.2263C38.2954 81.2263 39.703 82.634 39.703 84.3597V97.1818H33.4304V84.3597H33.4363Z" fill="white"/>
</svg>
