<svg width="196" height="43" viewBox="0 0 196 43" fill="none" xmlns="http://www.w3.org/2000/svg">
<path d="M12.6101 13.3817C12.6101 16.4974 10.101 19.1301 7.10899 19.1301H1.40766V18.977C0.630209 18.924 0 18.2761 0 17.4927V1.64918C0 0.818715 0.677327 0.164954 1.48423 0.164954V0.0648193H5.50107C8.58733 0.0648193 11.0021 2.40308 11.0021 5.41277C11.0021 6.64374 10.5781 7.79814 9.8713 8.72873C11.5028 9.70643 12.6101 11.438 12.6101 13.3758V13.3817ZM5.50107 3.03328H2.96257V7.92771H5.82501C7.05598 7.75101 8.03369 6.69673 8.03369 5.41864C8.03369 4.06399 6.95585 3.03328 5.50107 3.03328ZM9.6416 13.3817C9.6416 12.0506 8.36352 10.8962 6.90285 10.8962H2.96257V16.1675H7.1031C8.43419 16.1675 9.63571 14.8364 9.63571 13.3817H9.6416Z" fill="white"/>
<path d="M21.2445 11.1259V16.0969H28.4241C29.2546 16.0969 29.9319 16.7743 29.9319 17.6047C29.9319 18.4352 29.2546 19.0831 28.4241 19.0831H19.7367C18.9062 19.0831 18.2524 18.4293 18.2524 17.6047V1.53147C18.2524 0.701007 18.9062 0.0236816 19.7367 0.0236816H28.4241C29.2546 0.0236816 29.9319 0.701007 29.9319 1.53147C29.9319 2.36193 29.2546 3.03926 28.4241 3.03926H21.2445V8.13394H28.4241C29.2546 8.13394 29.9319 8.78771 29.9319 9.64173C29.9319 10.4957 29.2546 11.1201 28.4241 11.1201H21.2445V11.1259Z" fill="white"/>
<path d="M52.3839 19.0063C51.6536 19.3832 50.7524 19.0829 50.3755 18.3525L48.4142 14.4358H39.8033C39.7267 14.4358 39.6796 14.4358 39.6266 14.4123L37.8184 18.3054C37.5652 18.8591 37.0115 19.183 36.4638 19.183C36.24 19.183 36.0397 19.1359 35.8395 19.0299C35.0856 18.6765 34.7616 17.7989 35.1091 17.045L42.4419 1.20144C42.6952 0.671354 43.1958 0.347412 43.773 0.323853H43.7966C44.3738 0.323853 44.8744 0.647794 45.1512 1.15432L53.0612 16.9979C53.4382 17.7518 53.1378 18.6529 52.3839 19.0063ZM46.9123 11.4202L43.8496 5.29484L41.0107 11.4202H46.9123Z" fill="white"/>
<path d="M68.3807 19.0831C63.1329 19.0831 58.8628 14.7894 58.8628 9.54159C58.8628 4.29378 63.1329 0.0236816 68.3807 0.0236816C70.7425 0.0236816 73.0042 0.877706 74.7594 2.45617C75.3896 3.00981 75.4367 3.96395 74.8595 4.58827C74.3059 5.18903 73.3517 5.24204 72.7509 4.6884C71.5435 3.61057 69.9886 3.03337 68.3807 3.03337C64.7879 3.03337 61.8784 5.94883 61.8784 9.53571C61.8784 13.1226 64.7938 16.038 68.3807 16.038C70.0357 16.038 71.6201 15.4373 72.8275 14.3064C73.4283 13.7292 74.3824 13.7764 74.9596 14.383C75.5133 14.9838 75.4897 15.9379 74.883 16.5151C73.0984 18.1466 70.7896 19.0772 68.3807 19.0772V19.0831Z" fill="white"/>
<path d="M90.5498 19.0594C85.2784 19.0594 81.0083 14.7893 81.0083 9.51792C81.0083 4.24655 85.2784 0 90.5498 0C95.8212 0 100.068 4.27009 100.068 9.54146C100.068 14.8128 95.7976 19.0594 90.5498 19.0594ZM90.5498 3.03913C86.957 3.03913 84.0474 5.95459 84.0474 9.51792C84.0474 13.0812 86.9629 16.0202 90.5498 16.0202C94.1367 16.0202 97.0286 13.1048 97.0286 9.51792C97.0286 5.93103 94.1131 3.03913 90.5498 3.03913Z" fill="white"/>
<path d="M121.236 17.5753L121.212 17.5989V17.8227C121.212 17.8227 121.189 17.8698 121.189 17.8992C121.189 17.9287 121.189 17.9522 121.165 17.9758V18.0524L121.141 18.1054L121.088 18.1819C121.088 18.1819 121.088 18.2291 121.065 18.2585C121.065 18.2821 121.041 18.3056 121.041 18.3351L120.994 18.4116C120.994 18.4116 120.971 18.4352 120.971 18.4588C120.947 18.4823 120.923 18.4823 120.923 18.5118C120.9 18.5353 120.9 18.5648 120.876 18.5648C120.876 18.5883 120.853 18.6119 120.823 18.6413C120.8 18.6413 120.8 18.6649 120.776 18.6944C120.753 18.6944 120.753 18.7179 120.729 18.7415C120.706 18.7415 120.676 18.765 120.676 18.7945H120.653L120.629 18.818C120.582 18.871 120.505 18.8946 120.429 18.9417C120.352 18.9653 120.305 19.0183 120.229 19.0418H120.205C120.128 19.0654 120.052 19.0949 119.981 19.0949H119.928C119.881 19.1184 119.804 19.1184 119.728 19.1184H119.551L119.528 19.0949H119.404C119.404 19.0949 119.38 19.0713 119.351 19.0713C119.304 19.0713 119.274 19.0477 119.227 19.0477C119.227 19.0477 119.204 19.0242 119.18 19.0242C119.157 19.0242 119.133 19.0006 119.104 18.9712C119.08 18.9712 119.051 18.9712 119.027 18.9476C119.003 18.9476 118.98 18.9241 118.95 18.8946C118.927 18.8946 118.897 18.8946 118.897 18.871C118.85 18.8475 118.821 18.8475 118.797 18.818C118.797 18.7945 118.774 18.7945 118.744 18.7709C118.721 18.7474 118.668 18.7179 118.644 18.6708C118.621 18.6708 118.621 18.6472 118.621 18.6472C118.573 18.6237 118.544 18.5707 118.52 18.5471V18.5235L108.926 6.06662V17.593C108.926 18.447 108.225 19.1243 107.395 19.1243C106.564 19.1243 105.863 18.447 105.863 17.593V1.47258C105.863 1.47258 105.887 1.44901 105.887 1.41957V1.343C105.887 1.343 105.887 1.28999 105.91 1.26643V1.18986C105.91 1.18986 105.934 1.13686 105.934 1.1133C105.934 1.08974 105.958 1.06029 105.958 1.06029C105.958 1.03673 105.981 1.01318 105.981 0.983726L106.028 0.907156C106.028 0.907156 106.028 0.854145 106.052 0.830586C106.052 0.807027 106.075 0.777584 106.105 0.754024C106.105 0.754024 106.105 0.730458 106.128 0.701009L106.175 0.65389L106.199 0.600884L106.276 0.524323C106.276 0.524323 106.299 0.500757 106.323 0.471308L106.376 0.424188C106.376 0.424188 106.399 0.400631 106.423 0.371182H106.446L106.47 0.347627C106.493 0.324068 106.523 0.294621 106.546 0.294621C106.57 0.271062 106.594 0.271055 106.594 0.241606C106.617 0.241606 106.641 0.21805 106.67 0.21805C106.694 0.194491 106.717 0.194486 106.747 0.194486L106.823 0.147376C106.823 0.147376 106.847 0.147371 106.87 0.123811C106.894 0.123811 106.918 0.123815 106.947 0.100256H107.024C107.024 0.100256 107.071 0.076692 107.1 0.076692H107.177C107.177 0.076692 107.224 0.0531368 107.253 0.0531368H107.554C107.554 0.0531368 107.601 0.076692 107.63 0.076692H107.707L107.754 0.100256L107.854 0.123811C107.854 0.123811 107.878 0.147376 107.901 0.147376C107.925 0.147376 107.948 0.170931 107.978 0.170931C108.001 0.170931 108.025 0.194486 108.054 0.194486L108.101 0.247501C108.101 0.247501 108.154 0.271056 108.178 0.271056C108.202 0.294616 108.225 0.294617 108.225 0.318176C108.249 0.318176 108.278 0.341733 108.302 0.371182C108.325 0.371182 108.325 0.394746 108.349 0.394746L108.402 0.447752L108.449 0.500758L108.496 0.547878C108.496 0.547878 108.549 0.600889 108.549 0.624448C108.549 0.624448 108.557 0.632297 108.573 0.648003L118.161 13.1049V1.57859C118.161 0.724572 118.839 0.0472412 119.693 0.0472412C120.547 0.0472412 121.224 0.724572 121.224 1.57859V17.5753H121.236Z" fill="white"/>
<path d="M146.974 19.0594C141.702 19.0594 137.432 14.7893 137.432 9.51792C137.432 4.24655 141.702 0 146.974 0C152.245 0 156.492 4.27009 156.492 9.54146C156.492 14.8128 152.222 19.0594 146.974 19.0594ZM146.974 3.03913C143.381 3.03913 140.472 5.95459 140.472 9.51792C140.472 13.0812 143.387 16.0202 146.974 16.0202C150.561 16.0202 153.453 13.1048 153.453 9.51792C153.453 5.93103 150.537 3.03913 146.974 3.03913Z" fill="white"/>
<path d="M177.66 17.5753L177.636 17.5989V17.8227C177.636 17.8227 177.613 17.8698 177.613 17.8992C177.613 17.9287 177.613 17.9522 177.589 17.9758V18.0524L177.566 18.1054L177.513 18.1819C177.513 18.1819 177.513 18.2291 177.489 18.2585C177.489 18.2821 177.466 18.3056 177.466 18.3351L177.418 18.4116C177.418 18.4116 177.395 18.4352 177.395 18.4588C177.371 18.4823 177.348 18.4823 177.348 18.5118C177.324 18.5353 177.324 18.5648 177.301 18.5648C177.301 18.5883 177.277 18.6119 177.248 18.6413C177.224 18.6413 177.224 18.6649 177.201 18.6944C177.177 18.6944 177.177 18.7179 177.153 18.7415C177.13 18.7415 177.1 18.765 177.1 18.7945H177.077L177.053 18.818C177.006 18.871 176.93 18.8946 176.853 18.9417C176.776 18.9653 176.729 19.0183 176.653 19.0418H176.629C176.553 19.0654 176.476 19.0949 176.405 19.0949H176.352C176.305 19.1184 176.229 19.1184 176.152 19.1184H175.975L175.952 19.0949H175.828C175.828 19.0949 175.805 19.0713 175.775 19.0713C175.728 19.0713 175.699 19.0477 175.652 19.0477C175.652 19.0477 175.628 19.0242 175.604 19.0242C175.581 19.0242 175.557 19.0006 175.528 18.9712C175.504 18.9712 175.475 18.9712 175.451 18.9476C175.428 18.9476 175.404 18.9241 175.375 18.8946C175.351 18.8946 175.322 18.8946 175.322 18.871C175.275 18.8475 175.245 18.8475 175.222 18.818C175.222 18.7945 175.198 18.7945 175.169 18.7709C175.145 18.7474 175.092 18.7179 175.068 18.6708C175.045 18.6708 175.045 18.6472 175.045 18.6472C174.998 18.6237 174.968 18.5707 174.945 18.5471V18.5235L165.35 6.06662V17.593C165.35 18.447 164.649 19.1243 163.819 19.1243C162.988 19.1243 162.288 18.447 162.288 17.593V1.47258C162.288 1.47258 162.311 1.44901 162.311 1.41957V1.343C162.311 1.343 162.311 1.28999 162.335 1.26643V1.18986C162.335 1.18986 162.358 1.13686 162.358 1.1133C162.358 1.08974 162.382 1.06029 162.382 1.06029C162.382 1.03673 162.405 1.01318 162.405 0.983726L162.453 0.907156C162.453 0.907156 162.452 0.854145 162.476 0.830586C162.476 0.807027 162.5 0.777584 162.529 0.754024C162.529 0.754024 162.529 0.730458 162.553 0.701009L162.6 0.65389L162.623 0.600884L162.7 0.524323C162.7 0.524323 162.723 0.500757 162.747 0.471308L162.8 0.424188C162.8 0.424188 162.824 0.400631 162.847 0.371182H162.871L162.894 0.347627C162.918 0.324068 162.947 0.294621 162.971 0.294621C162.994 0.271062 163.018 0.271055 163.018 0.241606C163.041 0.241606 163.065 0.21805 163.094 0.21805C163.118 0.194491 163.142 0.194486 163.171 0.194486L163.248 0.147376C163.248 0.147376 163.271 0.147371 163.295 0.123811C163.318 0.123811 163.342 0.123815 163.371 0.100256H163.448C163.448 0.100256 163.495 0.076692 163.524 0.076692H163.601C163.601 0.076692 163.648 0.0531368 163.678 0.0531368H163.978C163.978 0.0531368 164.025 0.076692 164.055 0.076692H164.131L164.178 0.100256L164.278 0.123811C164.278 0.123811 164.302 0.147376 164.325 0.147376C164.349 0.147376 164.373 0.170931 164.402 0.170931C164.426 0.170931 164.449 0.194486 164.479 0.194486L164.526 0.247501C164.526 0.247501 164.579 0.271056 164.602 0.271056C164.626 0.294616 164.649 0.294617 164.649 0.318176C164.673 0.318176 164.702 0.341733 164.726 0.371182C164.75 0.371182 164.75 0.394746 164.773 0.394746L164.826 0.447752L164.873 0.500758L164.92 0.547878C164.92 0.547878 164.973 0.600889 164.973 0.624448C164.973 0.624448 164.981 0.632297 164.997 0.648003L174.586 13.1049V1.57859C174.586 0.724572 175.263 0.0472412 176.117 0.0472412C176.971 0.0472412 177.648 0.724572 177.648 1.57859V17.5753H177.66Z" fill="white"/>
<path d="M186.424 11.1259V16.0969H193.609C194.44 16.0969 195.117 16.7743 195.117 17.6047C195.117 18.4352 194.44 19.0831 193.609 19.0831H184.922C184.091 19.0831 183.444 18.4293 183.444 17.6047V1.53147C183.444 0.701007 184.097 0.0236816 184.922 0.0236816H193.609C194.44 0.0236816 195.117 0.701007 195.117 1.53147C195.117 2.36193 194.44 3.03926 193.609 3.03926H186.424V8.13394H193.609C194.44 8.13394 195.117 8.78771 195.117 9.64173C195.117 10.4957 194.44 11.1201 193.609 11.1201H186.424V11.1259Z" fill="white"/>
<path d="M58.957 42.0242C55.2582 42.0242 52.2544 39.0027 52.2544 35.3039C52.2544 31.6051 55.2582 28.6013 58.957 28.6013C60.6179 28.6013 62.2082 29.2021 63.445 30.3153C63.8867 30.704 63.9221 31.3754 63.5157 31.8171C63.127 32.2412 62.4555 32.2765 62.0315 31.8878C61.1833 31.128 60.0878 30.7217 58.957 30.7217C56.4244 30.7217 54.3747 32.7713 54.3747 35.3039C54.3747 37.8365 56.4244 39.8862 58.957 39.8862C60.1232 39.8862 61.2363 39.4621 62.0845 38.667C62.5085 38.2606 63.18 38.2959 63.5864 38.72C63.9751 39.1441 63.9574 39.8155 63.5334 40.2219C62.2788 41.3704 60.6532 42.0242 58.9511 42.0242H58.957Z" fill="white"/>
<path d="M80.1365 41.9708C79.6241 42.2358 78.988 42.0238 78.7229 41.5114L77.3447 38.755H71.2782C71.2252 38.755 71.1899 38.755 71.1545 38.7373L69.8823 41.4761C69.7056 41.8648 69.3169 42.0945 68.9282 42.0945C68.7692 42.0945 68.6278 42.0591 68.4864 41.9885C67.9564 41.7411 67.7267 41.1227 67.974 40.5926L73.1394 29.4314C73.3161 29.0604 73.6695 28.8307 74.0759 28.813H74.0935C74.4999 28.813 74.8533 29.0427 75.0477 29.3961L80.6194 40.5573C80.8845 41.0873 80.6724 41.7234 80.1424 41.9708H80.1365ZM76.2787 36.6288L74.123 32.3115L72.1263 36.6288H76.2845H76.2787Z" fill="white"/>
<path d="M93.6183 32.6355C93.6183 34.7205 91.7807 36.511 89.5838 36.511H86.792V40.9519C86.792 41.535 86.3326 41.9944 85.7495 41.9944C85.1664 41.9944 84.707 41.535 84.707 40.9519V29.7201C84.707 29.1723 85.1488 28.7129 85.6965 28.6776V28.5715H89.7251C91.8278 28.5715 93.6183 30.4268 93.6183 32.6414V32.6355ZM91.5156 32.6355C91.5156 31.6107 90.6675 30.6742 89.731 30.6742H86.7979V34.4024H89.5897C90.6145 34.4024 91.5156 33.572 91.5156 32.6355Z" fill="white"/>
<path d="M98.931 42.0061C98.3479 42.0061 97.8708 41.529 97.8708 40.9283V29.6611C97.8708 29.0603 98.3479 28.5833 98.931 28.5833C99.5141 28.5833 100.009 29.0603 100.009 29.6611V40.9283C100.009 41.529 99.5318 42.0061 98.931 42.0061Z" fill="white"/>
<path d="M114.58 29.6965C114.58 30.2973 114.103 30.7744 113.52 30.7744H110.481V40.9755C110.481 41.5763 110.004 42.0533 109.421 42.0533C108.838 42.0533 108.343 41.5763 108.343 40.9755V30.7744H105.321C104.738 30.7744 104.261 30.2973 104.261 29.6965C104.261 29.0957 104.738 28.6364 105.321 28.6364H113.526C114.109 28.6364 114.586 29.1134 114.586 29.6965H114.58Z" fill="white"/>
<path d="M130.577 41.9708C130.064 42.2358 129.428 42.0238 129.163 41.5114L127.785 38.755H121.719C121.666 38.755 121.63 38.755 121.595 38.7373L120.323 41.4761C120.146 41.8648 119.757 42.0945 119.369 42.0945C119.21 42.0945 119.068 42.0591 118.927 41.9885C118.397 41.7411 118.167 41.1227 118.414 40.5926L123.58 29.4314C123.757 29.0604 124.11 28.8307 124.516 28.813H124.534C124.94 28.813 125.294 29.0427 125.488 29.3961L131.06 40.5573C131.325 41.0873 131.113 41.7234 130.583 41.9708H130.577ZM126.719 36.6288L124.563 32.3115L122.567 36.6288H126.725H126.719Z" fill="white"/>
<path d="M136.19 42.0768C135.925 42.0768 135.66 41.9708 135.465 41.7764C135.271 41.582 135.147 41.317 135.147 41.0343V29.6964C135.147 29.1133 135.624 28.6539 136.19 28.6539C136.755 28.6539 137.232 29.1133 137.232 29.6964V39.9741L142.433 39.9211H142.451C143.016 39.9211 143.475 40.3805 143.493 40.9459C143.493 41.529 143.034 42.0061 142.451 42.0061L136.207 42.0768H136.19Z" fill="white"/>
</svg>
